<?xml version="1.0" encoding="UTF-8"?>
<svg fill="#fff" width="32" height="28" version="1.1" viewBox="0 0 700 700" xmlns="http://www.w3.org/2000/svg">
    <g>
        <path d="m147.84 374.08c8.3984 13.441 25.762 17.922 39.762 10.078 14-8.3984 17.922-26.32 9.5195-40.32-19.602-31.922-29.121-70-25.199-110.88 8.3984-86.238 79.52-154.56 165.76-160.72 104.72-7.2812 192.08 76.719 190.96 179.76-1.1211 95.762-79.52 175.28-175.28 176.96h-1.1211v-42.559c0-12.32-13.441-20.16-24.078-13.441l-114.8 72.238c-10.078 6.1602-10.078 20.719 0 26.879l114.24 71.684c10.641 6.7188 24.078-1.1211 24.078-13.441v-43.121c136.08-1.1211 244.72-116.48 234.64-254.8-8.9609-115.36-102.48-208.88-218.4-217.84-138.32-10.078-254.8 99.68-254.8 236.32 0 44.801 12.879 87.359 34.719 123.2z"/>
    </g>
</svg>
